<?xml version="1.0" encoding="UTF-8" standalone="no"?>
<!DOCTYPE svg PUBLIC "-//W3C//DTD SVG 1.1//EN" "http://www.w3.org/Graphics/SVG/1.1/DTD/svg11.dtd">
<svg width="100%" height="100%" viewBox="0 0 375 102" version="1.1" xmlns="http://www.w3.org/2000/svg" xmlns:xlink="http://www.w3.org/1999/xlink" xml:space="preserve" xmlns:serif="http://www.serif.com/" style="fill-rule:evenodd;clip-rule:evenodd;stroke-linecap:round;stroke-linejoin:round;stroke-miterlimit:1.5;">
    <g transform="matrix(0.216266,-1.64277e-17,1.64277e-17,0.216266,-31.8363,-402.815)">
        <g transform="matrix(444.627,0,0,444.627,1906.36,2220.18)">
        </g>
        <text x="661.493px" y="2220.18px" style="font-family:'CenturyGothic-Bold', 'Century Gothic';font-weight:700;font-size:444.627px;fill:rgb(195,203,162);">batiq.</text>
    </g>
    <g transform="matrix(0.119454,0,0,0.119454,-91.7153,-214.142)">
        <g transform="matrix(0.553362,0,0,0.553362,522.339,1210.3)">
            <g transform="matrix(1.14167,0,0,1,-175.693,0)">
                <rect x="1240.16" y="1818.18" width="62.072" height="614.371" style="fill:rgb(195,203,162);stroke:rgb(195,203,162);stroke-width:23.19px;"/>
            </g>
            <g transform="matrix(1.10616,0,0,1.10616,-188.341,-258.251)">
                <path d="M1529.03,2013.4C1644.7,2013.4 1738.61,2107.31 1738.61,2222.98C1738.61,2338.65 1644.7,2432.55 1529.03,2432.55C1413.36,2432.55 1319.45,2338.65 1319.45,2222.98C1319.45,2107.31 1413.36,2013.4 1529.03,2013.4ZM1529.03,2075.67C1610.33,2075.67 1676.34,2141.68 1676.34,2222.98C1676.34,2304.28 1610.33,2370.29 1529.03,2370.29C1447.73,2370.29 1381.72,2304.28 1381.72,2222.98C1381.72,2141.68 1447.73,2075.67 1529.03,2075.67Z" style="fill:rgb(195,203,162);stroke:rgb(195,203,162);stroke-width:22.5px;"/>
            </g>
            <g transform="matrix(0.809443,0,0,0.809443,237.487,448.425)">
                <circle cx="1849.86" cy="2407.45" r="43.775" style="fill:rgb(195,203,162);stroke:rgb(195,203,162);stroke-width:30.75px;"/>
            </g>
        </g>
        <g transform="matrix(0.276681,-0.479226,0.479226,0.276681,-5.85352,2307.67)">
            <g transform="matrix(1.14167,0,0,1,-175.693,0)">
                <rect x="1240.16" y="1818.18" width="62.072" height="614.371" style="fill:rgb(195,203,162);stroke:rgb(195,203,162);stroke-width:23.19px;"/>
            </g>
            <g transform="matrix(1.10616,0,0,1.10616,-188.341,-258.251)">
                <path d="M1529.03,2013.4C1644.7,2013.4 1738.61,2107.31 1738.61,2222.98C1738.61,2338.65 1644.7,2432.55 1529.03,2432.55C1413.36,2432.55 1319.45,2338.65 1319.45,2222.98C1319.45,2107.31 1413.36,2013.4 1529.03,2013.4ZM1529.03,2075.67C1610.33,2075.67 1676.34,2141.68 1676.34,2222.98C1676.34,2304.28 1610.33,2370.29 1529.03,2370.29C1447.73,2370.29 1381.72,2304.28 1381.72,2222.98C1381.72,2141.68 1447.73,2075.67 1529.03,2075.67Z" style="fill:rgb(195,203,162);stroke:rgb(195,203,162);stroke-width:22.5px;"/>
            </g>
            <g transform="matrix(0.809443,0,0,0.809443,237.487,448.425)">
                <circle cx="1849.86" cy="2407.45" r="43.775" style="fill:rgb(195,203,162);stroke:rgb(195,203,162);stroke-width:30.75px;"/>
            </g>
        </g>
        <g transform="matrix(-0.276681,-0.479226,0.479226,-0.276681,680.403,3313.79)">
            <g transform="matrix(1.14167,0,0,1,-175.693,0)">
                <rect x="1240.16" y="1818.18" width="62.072" height="614.371" style="fill:rgb(195,203,162);stroke:rgb(195,203,162);stroke-width:23.19px;"/>
            </g>
            <g transform="matrix(1.10616,0,0,1.10616,-188.341,-258.251)">
                <path d="M1529.03,2013.4C1644.7,2013.4 1738.61,2107.31 1738.61,2222.98C1738.61,2338.65 1644.7,2432.55 1529.03,2432.55C1413.36,2432.55 1319.45,2338.65 1319.45,2222.98C1319.45,2107.31 1413.36,2013.4 1529.03,2013.4ZM1529.03,2075.67C1610.33,2075.67 1676.34,2141.68 1676.34,2222.98C1676.34,2304.28 1610.33,2370.29 1529.03,2370.29C1447.73,2370.29 1381.72,2304.28 1381.72,2222.98C1381.72,2141.68 1447.73,2075.67 1529.03,2075.67Z" style="fill:rgb(195,203,162);stroke:rgb(195,203,162);stroke-width:22.5px;"/>
            </g>
            <g transform="matrix(0.809443,0,0,0.809443,237.487,448.425)">
                <circle cx="1849.86" cy="2407.45" r="43.775" style="fill:rgb(195,203,162);stroke:rgb(195,203,162);stroke-width:30.75px;"/>
            </g>
        </g>
        <g transform="matrix(-0.553362,-2.15024e-16,2.15024e-16,-0.553362,1894.85,3222.53)">
            <g transform="matrix(1.14167,0,0,1,-175.693,0)">
                <rect x="1240.16" y="1818.18" width="62.072" height="614.371" style="fill:rgb(195,203,162);stroke:rgb(195,203,162);stroke-width:23.19px;"/>
            </g>
            <g transform="matrix(1.10616,0,0,1.10616,-188.341,-258.251)">
                <path d="M1529.03,2013.4C1644.7,2013.4 1738.61,2107.31 1738.61,2222.98C1738.61,2338.65 1644.7,2432.55 1529.03,2432.55C1413.36,2432.55 1319.45,2338.65 1319.45,2222.98C1319.45,2107.31 1413.36,2013.4 1529.03,2013.4ZM1529.03,2075.67C1610.33,2075.67 1676.34,2141.68 1676.34,2222.98C1676.34,2304.28 1610.33,2370.29 1529.03,2370.29C1447.73,2370.29 1381.72,2304.28 1381.72,2222.98C1381.72,2141.68 1447.73,2075.67 1529.03,2075.67Z" style="fill:rgb(195,203,162);stroke:rgb(195,203,162);stroke-width:22.5px;"/>
            </g>
            <g transform="matrix(0.809443,0,0,0.809443,237.487,448.425)">
                <circle cx="1849.86" cy="2407.45" r="43.775" style="fill:rgb(195,203,162);stroke:rgb(195,203,162);stroke-width:30.75px;"/>
            </g>
        </g>
        <g transform="matrix(-0.276681,0.479226,-0.479226,-0.276681,2423.04,2125.16)">
            <g transform="matrix(1.14167,0,0,1,-175.693,0)">
                <rect x="1240.16" y="1818.18" width="62.072" height="614.371" style="fill:rgb(195,203,162);stroke:rgb(195,203,162);stroke-width:23.19px;"/>
            </g>
            <g transform="matrix(1.10616,0,0,1.10616,-188.341,-258.251)">
                <path d="M1529.03,2013.4C1644.7,2013.4 1738.61,2107.31 1738.61,2222.98C1738.61,2338.65 1644.7,2432.55 1529.03,2432.55C1413.36,2432.55 1319.45,2338.65 1319.45,2222.98C1319.45,2107.31 1413.36,2013.4 1529.03,2013.4ZM1529.03,2075.67C1610.33,2075.67 1676.34,2141.68 1676.34,2222.98C1676.34,2304.28 1610.33,2370.29 1529.03,2370.29C1447.73,2370.29 1381.72,2304.28 1381.72,2222.98C1381.72,2141.68 1447.73,2075.67 1529.03,2075.67Z" style="fill:rgb(195,203,162);stroke:rgb(195,203,162);stroke-width:22.5px;"/>
            </g>
            <g transform="matrix(0.809443,0,0,0.809443,237.487,448.425)">
                <circle cx="1849.86" cy="2407.45" r="43.775" style="fill:rgb(195,203,162);stroke:rgb(195,203,162);stroke-width:30.75px;"/>
            </g>
        </g>
        <g transform="matrix(0.276681,0.479226,-0.479226,0.276681,1736.79,1119.04)">
            <g transform="matrix(1.14167,0,0,1,-175.693,0)">
                <rect x="1240.16" y="1818.18" width="62.072" height="614.371" style="fill:rgb(195,203,162);stroke:rgb(195,203,162);stroke-width:23.19px;"/>
            </g>
            <g transform="matrix(1.10616,0,0,1.10616,-188.341,-258.251)">
                <path d="M1529.03,2013.4C1644.7,2013.4 1738.61,2107.31 1738.61,2222.98C1738.61,2338.65 1644.7,2432.55 1529.03,2432.55C1413.36,2432.55 1319.45,2338.65 1319.45,2222.98C1319.45,2107.31 1413.36,2013.4 1529.03,2013.4ZM1529.03,2075.67C1610.33,2075.67 1676.34,2141.68 1676.34,2222.98C1676.34,2304.28 1610.33,2370.29 1529.03,2370.29C1447.73,2370.29 1381.72,2304.28 1381.72,2222.98C1381.72,2141.68 1447.73,2075.67 1529.03,2075.67Z" style="fill:rgb(195,203,162);stroke:rgb(195,203,162);stroke-width:22.5px;"/>
            </g>
            <g transform="matrix(0.809443,0,0,0.809443,237.487,448.425)">
                <circle cx="1849.86" cy="2407.45" r="43.775" style="fill:rgb(195,203,162);stroke:rgb(195,203,162);stroke-width:30.75px;"/>
            </g>
        </g>
    </g>
</svg>
